<?xml version="1.0" encoding="utf-8"?>
<!-- Generator: Adobe Illustrator 19.0.1, SVG Export Plug-In . SVG Version: 6.00 Build 0)  -->
<svg version="1.1" id="Layer_1" xmlns="http://www.w3.org/2000/svg" xmlns:xlink="http://www.w3.org/1999/xlink" x="0px" y="0px"
	 viewBox="0 0 609.9 68.2" style="enable-background:new 0 0 609.9 68.2;" xml:space="preserve">
<style type="text/css">
	.st0{fill:#FFFFFF;}
</style>
<g>
	<path class="st0" d="M20.9,7.5H0l0.5-2.7h20.8L20.9,7.5z M21.9,12.2h-21l0.4-2.7h21L21.9,12.2z M22.6,16.8h-21L2,14.2h21L22.6,16.8
		z M23.4,21.5H3.2l0.4-2.7h20.3L23.4,21.5z M24.3,26.2H4.2l0.4-2.7h20.1L24.3,26.2z M25,30.8H4.9l0.4-2.6h20.1L25,30.8z M25.9,35.5
		H5.7l0.5-2.7h20.1L25.9,35.5z M26.8,40.2H7.3l0.4-2.7h19.6L26.8,40.2z M27.6,44.8H8.2l0.4-2.6H28L27.6,44.8z M43.9,49.5H9l0.4-2.7
		h34.9L43.9,49.5z M24.6,54.2H9.8l0.5-2.7H25L24.6,54.2z M21.9,58.8H10.6l0.4-2.6h11.3L21.9,58.8z M32,63.5H11.4l0.5-2.7h20.6
		L32,63.5z M29.6,68.2H12.3l0.4-2.7H30L29.6,68.2z M39.4,58.8H21.9l0.4-2.6h17.5L39.4,58.8z M42.4,54.2H24.6l0.4-2.7h17.8L42.4,54.2
		z M34.8,68.2h-5.2l0.4-2.7h5.3L34.8,68.2z M40.4,44.8h-9.7l0.4-2.6h9.7L40.4,44.8z M37.2,63.5H32l0.5-2.7h5.1L37.2,63.5z
		 M38.5,40.2H33l0.5-2.7H39L38.5,40.2z M51.7,35.5H36.1l0.4-2.7h15.7L51.7,35.5z M53.9,30.8H38.4l0.5-2.6h15.4L53.9,30.8z
		 M49.4,40.2H38.5l0.5-2.7h10.8L49.4,40.2z M47.1,44.8h-6.7l0.4-2.6h6.7L47.1,44.8z M57.1,26.2H40.9l0.4-2.7h16.2L57.1,26.2z
		 M59.3,21.5H43.1l0.4-2.7h16.2L59.3,21.5z M44.9,49.5h-1l0.4-2.7h1L44.9,49.5z M61.8,16.8H45.3l0.4-2.6h16.5L61.8,16.8z M64,12.2
		H47.7l0.5-2.7h16.2L64,12.2z M66.3,7.5H49.9l0.5-2.7h16.3L66.3,7.5z"/>
	<path class="st0" d="M60,68H49.4l0.4-2.7h10.6L60,68z M68.9,63.3H52.5l0.5-2.6h16.3L68.9,63.3z M71.9,58.7h-17l0.4-2.7h17.1
		L71.9,58.7z M68.3,54H57.1l0.4-2.7h11.2L68.3,54z M93.8,49.3H59.4l0.4-2.6h34.4L93.8,49.3z M66.6,68H60l0.4-2.7H67L66.6,68z
		 M99.3,44.7H62.4l0.5-2.7h36.8L99.3,44.7z M81.1,40H64.8l0.4-2.7h16.3L81.1,40z M84.2,35.3H67.1l0.4-2.6h17.1L84.2,35.3z M107.3,54
		h-39l0.4-2.7h39.1L107.3,54z M83.8,30.7H70.2l0.4-2.7h13.6L83.8,30.7z M77.7,26h-5.2l0.4-2.7h5.3L77.7,26z M111.4,21.3H74.7
		l0.4-2.6h36.7L111.4,21.3z M88.8,26H77.7l0.5-2.7h11.1L88.8,26z M103.8,16.7H77.9l0.4-2.7h26L103.8,16.7z M109,12H80.2l0.4-2.7
		h28.8L109,12z M108.1,7.3H82.4l0.4-2.6h25.8L108.1,7.3z M86.5,30.7h-2.7l0.4-2.7h2.7L86.5,30.7z M112.3,26H92l0.4-2.7h20.3
		L112.3,26z M113,30.7H92.8l0.5-2.7h20.1L113,30.7z M117.8,49.3h-24l0.4-2.6h24L117.8,49.3z M95,35.3h-0.6l0.4-2.6h0.7L95,35.3z
		 M114.6,35.3H95l0.5-2.6H115L114.6,35.3z M99.4,40h-4.1l0.4-2.7h4.1L99.4,40z M116.2,44.7H99.3l0.4-2.7h17L116.2,44.7z M117.9,58.7
		H99.3l0.4-2.7h18.7L117.9,58.7z M115.5,40H99.4l0.4-2.7H116L115.5,40z M120.4,63.3h-20.3l0.4-2.6h20.3L120.4,63.3z M121.9,68H101
		l0.4-2.7h21L121.9,68z M110.6,16.7h-6.8l0.5-2.7h6.7L110.6,16.7z M118.7,54h-11.4l0.5-2.7h11.3L118.7,54z M119.5,58.7h-1.6l0.5-2.7
		h1.5L119.5,58.7z"/>
	<path class="st0" d="M153.9,44.7h-20.1l0.4-2.7h20.1L153.9,44.7z M153.4,49.3h-19.6l0.4-2.6h19.6L153.4,49.3z M153.9,40h-20
		l0.4-2.7h20.1L153.9,40z M154.7,35.3h-20.2l0.4-2.6h20.2L154.7,35.3z M157.3,54h-21.6l0.5-2.7h21.5L157.3,54z M143.4,30.7H136
		l0.4-2.7h7.5L143.4,30.7z M138.5,58.7h-1.3l0.4-2.7h1.3L138.5,58.7z M157.8,26h-20.3l0.4-2.7h20.4L157.8,26z M177.6,58.7h-39.1
		l0.4-2.7H178L177.6,58.7z M160.8,21.3H140l0.5-2.6h20.7L160.8,21.3z M142.2,63.3h-1.8l0.4-2.6h1.8L142.2,63.3z M181.2,63.3h-39
		l0.4-2.6h39L181.2,63.3z M163.5,16.7h-20.6l0.4-2.7h20.6L163.5,16.7z M155.2,30.7h-11.8l0.5-2.7h11.7L155.2,30.7z M158.6,68h-10.8
		l0.4-2.7h10.9L158.6,68z M176.9,12h-28.4l0.4-2.7h28.4L176.9,12z M154.8,49.3h-1.4l0.4-2.6h1.4L154.8,49.3z M171.8,7.3h-17l0.4-2.6
		h17L171.8,7.3z M177.2,68h-18.6l0.5-2.7h18.5L177.2,68z M166.2,16.7h-2.7l0.4-2.7h2.7L166.2,16.7z M198,44.7h-30.5l0.4-2.7h30.5
		L198,44.7z M183,2.7h-14.9l0.5-2.7h14.8L183,2.7z M198,40h-29.4l0.4-2.7h29.4L198,40z M193.7,35.3h-24.5l0.4-2.6h24.5L193.7,35.3z
		 M194.8,7.3h-23l0.4-2.6h23.1L194.8,7.3z M198.7,12h-21.8l0.4-2.7h21.9L198.7,12z M198.5,58.7h-20.9L178,56h21L198.5,58.7z
		 M199.3,54h-20.8l0.5-2.7h20.7L199.3,54z M202.1,16.7h-21.6L181,14h21.6L202.1,16.7z M197.4,63.3h-16.2l0.4-2.6h16.3L197.4,63.3z
		 M192.5,49.3H182l0.4-2.6h10.5L192.5,49.3z M203.6,21.3h-19.5l0.4-2.6H204L203.6,21.3z M200.7,26h-15.2l0.5-2.7h15.1L200.7,26z
		 M197.1,68h-9.7l0.5-2.7h9.6L197.1,68z M200.2,49.3h-7.7l0.4-2.6h7.7L200.2,49.3z M202,35.3h-8.3l0.4-2.6h8.3L202,35.3z
		 M200.8,44.7H198l0.4-2.7h2.8L200.8,44.7z M201.4,40h-3.3l0.4-2.7h3.3L201.4,40z"/>
	<path class="st0" d="M240.1,68h-7.4l0.4-2.7h7.4L240.1,68z M262.7,63.3h-29.2l0.4-2.6h29.2L262.7,63.3z M259,58.7h-24.7l0.4-2.7
		h24.7L259,58.7z M248.4,54H235l0.4-2.7h13.4L248.4,54z M255,49.3h-19.4l0.4-2.6h19.4L255,49.3z M240.4,44.7h-4.1l0.5-2.7h4
		L240.4,44.7z M240.5,40h-3.4l0.4-2.7h3.4L240.5,40z M257.2,35.3h-19.4l0.4-2.6h19.4L257.2,35.3z M258,30.7h-19.4L239,28h19.4
		L258,30.7z M257.9,26h-18.6l0.4-2.7h18.6L257.9,26z M254.7,21.3h-14.6l0.4-2.6h14.6L254.7,21.3z M276.3,68h-36.2l0.4-2.7h36.3
		L276.3,68z M255.7,44.7h-15.3l0.4-2.7h15.4L255.7,44.7z M256.6,40h-16.1l0.4-2.7H257L256.6,40z M244.9,16.7h-4.1l0.4-2.7h4.2
		L244.9,16.7z M258.4,12h-16.7l0.4-2.7h16.7L258.4,12z M253.3,7.3h-10.9l0.4-2.6h10.9L253.3,7.3z M260.3,16.7h-15.4l0.5-2.7h15.3
		L260.3,16.7z M254.3,54h-5.9l0.4-2.7h5.9L254.3,54z M291.4,7.3h-38.1l0.4-2.6h38.2L291.4,7.3z M259.5,21.3h-4.8l0.4-2.6h4.8
		L259.5,21.3z M258.8,26h-0.9l0.4-2.7h1L258.8,26z M297.4,12h-39l0.4-2.7h39L297.4,12z M293.4,58.7H259l0.4-2.7h34.5L293.4,58.7z
		 M287.9,63.3h-25.2l0.4-2.6h25.2L287.9,63.3z M287.5,54h-13.6l0.4-2.7h13.6L287.5,54z M284,16.7h-8.8l0.4-2.7h8.8L284,16.7z
		 M300.4,49.3h-21l0.4-2.6h21L300.4,49.3z M293.7,21.3h-11.4l0.4-2.6h11.4L293.7,21.3z M302.6,44.7h-20.1l0.4-2.7H303L302.6,44.7z
		 M296.9,26h-13.1l0.5-2.7h13L296.9,26z M304.1,40h-20.2l0.5-2.7h20.1L304.1,40z M301.5,16.7H284l0.4-2.7H302L301.5,16.7z M303,30.7
		h-17.6l0.4-2.7h17.6L303,30.7z M304.9,35.3h-19.4l0.5-2.6h19.3L304.9,35.3z M297.2,54h-9.7l0.4-2.7h9.7L297.2,54z M304,21.3h-10.3
		l0.4-2.6h10.3L304,21.3z M304.8,26h-7.9l0.4-2.7h8L304.8,26z M297.6,12h-0.2l0.4-2.7h0.3L297.6,12z M305.7,30.7H303l0.4-2.7h2.7
		L305.7,30.7z"/>
	<path class="st0" d="M314.7,44.5h-0.6l0.4-2.7h0.6L314.7,44.5z M332.8,49.2h-18.7l0.4-2.7h18.7L332.8,49.2z M333.5,44.5h-18.8
		l0.4-2.7h18.8L333.5,44.5z M333.6,53.8h-18.5l0.4-2.6H334L333.6,53.8z M334.3,39.8h-18.6l0.4-2.6h18.6L334.3,39.8z M336,58.5h-19.5
		l0.5-2.7h19.5L336,58.5z M335.7,35.2h-18.5l0.4-2.7h18.5L335.7,35.2z M338.8,30.5h-18.6l0.5-2.7h18.5L338.8,30.5z M327.7,63.2h-7.3
		l0.4-2.7h7.4L327.7,63.2z M359.4,25.8h-34.5l0.4-2.6h34.5L359.4,25.8z M360.2,63.2h-32.5l0.5-2.7h32.4L360.2,63.2z M346.9,67.8
		h-19.2l0.5-2.6h19.1L346.9,67.8z M342.6,21.2h-10.8l0.5-2.7H343L342.6,21.2z M362.1,21.2h-19.5l0.4-2.7h19.5L362.1,21.2z
		 M365.7,58.5h-19.5l0.4-2.7h19.5L365.7,58.5z M351.5,67.8h-4.6l0.4-2.6h4.6L351.5,67.8z M368.8,53.8h-17.9l0.5-2.6h17.8L368.8,53.8
		z M370.9,49.2h-18.4l0.5-2.7h18.4L370.9,49.2z M353.9,30.5h-1l0.5-2.7h0.9L353.9,30.5z M353.8,44.5h-0.6l0.4-2.7h0.6L353.8,44.5z
		 M372.3,35.2h-18.5l0.4-2.7h18.5L372.3,35.2z M372.5,44.5h-18.7l0.4-2.7H373L372.5,44.5z M370.7,30.5h-16.8l0.4-2.7h16.9
		L370.7,30.5z M372.4,39.8h-18.5l0.4-2.6h18.6L372.4,39.8z M367.7,25.8h-8.3l0.4-2.6h8.3L367.7,25.8z"/>
	<path class="st0" d="M384.6,49.5h-3.8l0.4-2.7h3.8L384.6,49.5z M400.9,54.2h-20.1l0.4-2.7h20.2L400.9,54.2z M400.8,44.8h-19.2
		l0.4-2.6h19.3L400.8,44.8z M402.5,58.8h-20.8l0.4-2.6h20.8L402.5,58.8z M401.2,40.2H383l0.5-2.7h18.1L401.2,40.2z M394.8,63.5
		h-10.7l0.4-2.7h10.8L394.8,63.5z M400.9,49.5h-16.3l0.4-2.7h16.4L400.9,49.5z M387.2,35.5h-2l0.5-2.7h1.9L387.2,35.5z M405.5,35.5
		h-18.3l0.4-2.7h18.3L405.5,35.5z M395.8,68.2H388l0.4-2.7h7.8L395.8,68.2z M419.8,30.8h-30.7l0.5-2.6h30.6L419.8,30.8z M405.7,26.2
		h-11.1l0.5-2.7h11.1L405.7,26.2z M430.8,63.5h-36l0.5-2.7h35.9L430.8,63.5z M425.3,68.2h-29.5l0.4-2.7h29.5L425.3,68.2z
		 M402.4,40.2h-1.2l0.4-2.7h1.2L402.4,40.2z M432,26.2h-26.3l0.5-2.7h26.2L432,26.2z M422.5,21.5H407l0.4-2.7h15.5L422.5,21.5z
		 M433.9,58.8h-18.6l0.4-2.6h18.6L433.9,58.8z M436.1,54.2h-17l0.4-2.7h17L436.1,54.2z M435.8,30.8h-16l0.4-2.6h16L435.8,30.8z
		 M426.2,35.5h-5.8l0.4-2.7h5.9L426.2,35.5z M438.3,40.2h-17.1l0.4-2.7h17.1L438.3,40.2z M438.3,35.5h-12.1l0.5-2.7h12L438.3,35.5z"
		/>
	<path class="st0" d="M469.7,25.8h-19.5l0.4-2.6h19.5L469.7,25.8z M464.2,30.5h-13.9l0.4-2.7h13.9L464.2,30.5z M453,21.2h-2.1
		l0.4-2.7h2.1L453,21.2z M491.2,21.2H453l0.4-2.7h38.2L491.2,21.2z M456,58.5h-1l0.4-2.7h1L456,58.5z M473.4,53.8h-18.3l0.4-2.6
		h18.3L473.4,53.8z M474.4,49.2h-18.7l0.5-2.7h18.6L474.4,49.2z M477.1,63.2h-21.3l0.5-2.7h21.2L477.1,63.2z M486.1,58.5H456
		l0.4-2.7h30.1L486.1,58.5z M464,44.5h-7.5l0.4-2.7h7.6L464,44.5z M475.6,39.8h-18.4l0.4-2.6h18.5L475.6,39.8z M476.3,35.2h-18.2
		l0.4-2.7h18.2L476.3,35.2z M484.6,67.8h-24.1l0.4-2.6H485L484.6,67.8z M464.6,16.5h-2.2l0.4-2.7h2.2L464.6,16.5z M478,11.8h-14.1
		l0.4-2.6h14.1L478,11.8z M474.9,44.5H464l0.5-2.7h10.8L474.9,44.5z M489.8,30.5h-25.6l0.4-2.7h25.6L489.8,30.5z M479.2,16.5h-14.6
		l0.4-2.7h14.6L479.2,16.5z M473.5,7.2h-8.7l0.5-2.7h8.6L473.5,7.2z M490.3,25.8h-20.6l0.4-2.6h20.6L490.3,25.8z M480.8,7.2h-7.3
		l0.4-2.7h7.3L480.8,7.2z M485.4,63.2h-8.3l0.4-2.7h8.3L485.4,63.2z M480.2,11.8H478l0.4-2.6h2.2L480.2,11.8z"/>
	<path class="st0" d="M498.1,44.5h-0.6l0.4-2.7h0.6L498.1,44.5z M516.2,49.2h-18.7l0.4-2.7h18.7L516.2,49.2z M516.9,44.5h-18.8
		l0.4-2.7h18.8L516.9,44.5z M517,53.8h-18.5l0.4-2.6h18.5L517,53.8z M517.7,39.8h-18.6l0.4-2.6h18.6L517.7,39.8z M519.4,58.5h-19.5
		l0.5-2.7h19.5L519.4,58.5z M519.1,35.2h-18.5l0.4-2.7h18.5L519.1,35.2z M522.2,30.5h-18.6l0.5-2.7h18.5L522.2,30.5z M511.1,63.2
		h-7.3l0.4-2.7h7.4L511.1,63.2z M542.8,25.8h-34.5l0.4-2.6h34.5L542.8,25.8z M543.6,63.2h-32.5l0.5-2.7H544L543.6,63.2z M530.3,67.8
		h-19.2l0.5-2.6h19.1L530.3,67.8z M526,21.2h-10.8l0.5-2.7h10.7L526,21.2z M545.5,21.2H526l0.4-2.7h19.5L545.5,21.2z M549.1,58.5
		h-19.5l0.4-2.7h19.5L549.1,58.5z M534.9,67.8h-4.6l0.4-2.6h4.6L534.9,67.8z M552.2,53.8h-17.9l0.5-2.6h17.8L552.2,53.8z
		 M554.3,49.2h-18.4l0.5-2.7h18.4L554.3,49.2z M537.3,30.5h-1l0.5-2.7h0.9L537.3,30.5z M537.2,44.5h-0.6l0.4-2.7h0.6L537.2,44.5z
		 M555.7,35.2h-18.5l0.4-2.7h18.5L555.7,35.2z M555.9,44.5h-18.7l0.4-2.7h18.8L555.9,44.5z M554.1,30.5h-16.8l0.4-2.7h16.9
		L554.1,30.5z M555.8,39.8h-18.5l0.4-2.6h18.6L555.8,39.8z M551.1,25.8h-8.3l0.4-2.6h8.3L551.1,25.8z"/>
	<path class="st0" d="M577.8,67.8h-16.1l0.4-2.6h16.1L577.8,67.8z M572.4,63.2H562l0.5-2.7h10.3L572.4,63.2z M579.5,58.5h-16.3
		l0.4-2.7h16.3L579.5,58.5z M578.3,53.8h-14.6l0.4-2.6h14.6L578.3,53.8z M581.3,49.2h-17l0.4-2.7h17.1L581.3,49.2z M582.7,44.5H565
		l0.4-2.7h17.7L582.7,44.5z M583,39.8h-17.1l0.4-2.6h17.1L583,39.8z M584.9,35.2h-18.4l0.4-2.7h18.4L584.9,35.2z M608.3,30.5h-40.9
		l0.4-2.7h41L608.3,30.5z M584.1,25.8h-15.9l0.4-2.6h15.9L584.1,25.8z M584.9,21.2h-16.1l0.5-2.7h16.1L584.9,21.2z M578.8,63.2h-6.4
		l0.4-2.7h6.4L578.8,63.2z M580.3,53.8h-2l0.4-2.6h2L580.3,53.8z M584.4,39.8H583l0.4-2.6h1.4L584.4,39.8z M586.5,35.2h-1.6l0.4-2.7
		h1.6L586.5,35.2z M605.5,25.8h-20l0.5-2.6h20L605.5,25.8z M601.3,21.2h-12.2l0.4-2.7h12.2L601.3,21.2z M608.5,35.2h-11.4l0.4-2.7
		h11.4L608.5,35.2z M609.4,30.5h-1.1l0.5-2.7h1.1L609.4,30.5z"/>
</g>
</svg>
